# xmcd
#
# Track frame offsets:
#	150
#	15460
#	28074
#	41572
#	55042
#	65985
#	88067
#	106048
#	119837
#	133588
#	148948
#	165388
#	175136
#	185553
#	196607
#	208047
#	220860
#	235410
#
# Disc length: 3380 seconds
#
# Revision: 1
# Processed by: cddbd v1.5.2PL0 Copyright (c) Steve Scherf et al.
# Submitted via: audiograbber 1.83.01
#
DISCID=070d3212
DTITLE=Merle Haggard - The Best Of Merle Haggard
DYEAR=2000
DGENRE=Country
TTITLE0=Okie From Muskogee
TTITLE1=If You Want To Be My Woman
TTITLE2=Games People Play
TTITLE3=Workin' Man's Blues
TTITLE4=Corrine Corrina
TTITLE5=The Bottle Let Me Down
TTITLE6=What Am  I Gonna Do
TTITLE7=Mama Tried
TTITLE8=That's The Way Love Goes
TTITLE9=San Antonio Rose
TTITLE10=Ramblin' Fever
TTITLE11=Take Me Back To Tulsa
TTITLE12=Ida Red
TTITLE13=Begging To You
TTITLE14=Always Late
TTITLE15=Big City
TTITLE16=Folsom Prison Blues
TTITLE17=Footlights
EXTD=
EXTT0=
EXTT1=
EXTT2=
EXTT3=
EXTT4=
EXTT5=
EXTT6=
EXTT7=
EXTT8=
EXTT9=
EXTT10=
EXTT11=
EXTT12=
EXTT13=
EXTT14=
EXTT15=
EXTT16=
EXTT17=
PLAYORDER=
